<svg xmlns="http://www.w3.org/2000/svg" width="66" height="78"><path d="M0 39.184v-39l17.75.012L35.5.21l2.037 3.237c3.622 5.759 8.302 17.014 10.997 26.448l2.632 9.21-2.636 9.29c-1.45 5.11-4.87 13.902-7.6 19.54l-4.966 10.25H0zm55.318 34.25c3.15-6.361 6.274-15.14 8.631-24.25l1.94-7.5.056 18.25.055 18.25H52.966zm7.378-48.504c-1.542-5.635-4.327-13.509-6.188-17.496L53.125.184H66v17.5c0 9.625-.112 17.498-.25 17.496-.137-.001-1.512-4.614-3.054-10.25z" fill="#fefefe"/><path d="M37.216 77.434c6.136-12.035 10.195-21.58 12.304-28.94l2.634-9.19-2.136-7.788c-2.694-9.819-6.418-19.33-10.214-26.082l-2.95-5.25H52.13l3.41 7.382c1.877 4.06 4.834 12.476 6.572 18.702 2.929 10.492 3.078 11.763 2.04 17.397-1.403 7.61-6.626 23.493-9.79 29.769l-2.396 4.75H44.4c-4.162 0-7.395-.338-7.184-.75z" fill="#fe0f36"/></svg>