<svg xmlns="http://www.w3.org/2000/svg" width="66" height="78"><path d="M-70.733 39.736v-39l17.75.012 17.75.013 2.036 3.237c3.622 5.758 8.303 17.014 10.998 26.448l2.631 9.21-2.636 9.29c-1.45 5.11-4.87 13.902-7.6 19.54l-4.965 10.25h-35.964zm55.317 34.25c3.15-6.361 6.274-15.14 8.632-24.25l1.94-7.5.055 18.25.056 18.25h-13.034zm7.378-48.504c-1.542-5.635-4.326-13.509-6.187-17.496L-17.61.736h12.876v17.5c0 9.625-.113 17.498-.25 17.496-.138-.002-1.512-4.614-3.055-10.25z" fill="#fefefe"/><path d="M-33.518 77.986c6.137-12.036 10.195-21.58 12.305-28.94l2.634-9.19-2.137-7.788c-2.694-9.819-6.418-19.33-10.213-26.082L-33.88.736H-18.603l3.41 7.382c1.876 4.06 4.833 12.476 6.571 18.701 2.929 10.492 3.078 11.764 2.04 17.398-1.402 7.61-6.626 23.493-9.79 29.769l-2.395 4.75h-7.567c-4.161 0-7.394-.338-7.184-.75zM38.308 77.25c6.137-12.035 10.195-21.58 12.305-28.94l2.634-9.19-2.137-7.788c-2.694-9.819-6.418-19.33-10.213-26.082L37.946 0H53.223l3.41 7.382c1.876 4.06 4.833 12.476 6.571 18.702 2.929 10.492 3.078 11.763 2.04 17.397-1.402 7.61-6.626 23.493-9.79 29.769L53.059 78h-7.567c-4.161 0-7.394-.338-7.184-.75z" fill="#fe0f36"/></svg>