<svg xmlns="http://www.w3.org/2000/svg" width="66" height="78"><path d="M-.33 39.33v-39l17.75.013 17.75.012 2.036 3.238c3.622 5.758 8.303 17.014 10.998 26.447l2.631 9.21-2.636 9.29c-1.45 5.11-4.87 13.903-7.6 19.54l-4.965 10.25H-.331zm55.317 34.25c3.15-6.36 6.274-15.14 8.632-24.25l1.94-7.5.055 18.25.055 18.25H52.636zm7.378-48.503c-1.542-5.636-4.326-13.509-6.187-17.496L52.794.33H65.67v17.5c0 9.625-.112 17.498-.25 17.496-.137-.002-1.511-4.614-3.054-10.25z" fill="#fefefe"/><path d="M36.885 77.58C43.022 65.546 47.08 56 49.19 48.64l2.634-9.19-2.137-7.788c-2.694-9.818-6.418-19.33-10.213-26.081L36.523.33H51.8l3.41 7.382c1.876 4.06 4.833 12.476 6.571 18.701 2.929 10.492 3.078 11.764 2.04 17.398-1.402 7.61-6.626 23.493-9.79 29.769l-2.395 4.75h-7.567c-4.161 0-7.394-.338-7.184-.75z" fill="#fe0f36"/></svg>